<?xml version="1.0" encoding="utf-8"?>
<!-- Generator: Adobe Illustrator 24.0.2, SVG Export Plug-In . SVG Version: 6.00 Build 0)  -->
<svg version="1.1" id="Layer_1" xmlns="http://www.w3.org/2000/svg" xmlns:xlink="http://www.w3.org/1999/xlink" x="0px" y="0px"
	 viewBox="0 0 500 500" style="enable-background:new 0 0 500 500;" xml:space="preserve">
<style type="text/css">
	.st0{fill:#FFFFFF;}
</style>
<path class="st0" d="M289.82,39.21c-3.04-6.19-7.04-11.87-11.85-16.81l5.91-5.91c3.11-3.22,3.06-8.34-0.1-11.5
	c-3.17-3.16-8.28-3.21-11.5-0.1l-6.17,6.18c-7.12-5.49-15.84-8.51-24.84-8.58h-42.41c-10.87,0.02-21.3,4.34-29.02,12l-43.9,43.97
	c-2.23,2.2-4.87,3.95-7.76,5.15L95.4,73.39c-9.63,4.19-17.31,11.88-21.48,21.51l-9.77,22.74c-1.2,2.89-2.94,5.52-5.14,7.75
	l-43.97,43.9c-7.66,7.71-11.98,18.14-12,29.02v42.41c0.08,8.99,3.09,17.71,8.58,24.83l-6.18,6.18c-2.13,2.06-2.99,5.11-2.24,7.98
	c0.75,2.87,2.99,5.11,5.86,5.86c2.87,0.75,5.92-0.1,7.98-2.24l5.89-5.89c4.96,4.8,10.64,8.78,16.83,11.81
	C51.02,410.05,154.3,501.27,275.58,497.52c121.28-3.76,218.72-101.19,222.49-222.47C501.84,153.77,410.63,50.48,289.82,39.21z
	 M19.44,240.72V198.3c0.02-6.52,2.6-12.78,7.19-17.41l43.97-43.87c3.69-3.7,6.62-8.08,8.64-12.9l9.75-22.68
	c2.52-5.81,7.14-10.44,12.94-12.97l22.7-9.78c4.83-2.01,9.23-4.95,12.94-8.64l43.89-43.96c4.63-4.59,10.87-7.17,17.39-7.2h42.41
	c4.65,0.03,9.2,1.37,13.13,3.86L242.2,34.95c-9.35-4.5-20.52-2.63-27.89,4.67c-1.86,1.89-3.41,4.07-4.58,6.45l-2.18,0.24h-0.15
	l-17.39,1.96c-5.54,0.63-10.69,3.12-14.64,7.05l-37.66,37.65c-2.4,2.41-5.17,4.43-8.2,5.97l-10.21,5.16
	c-6.32,3.18-11.45,8.32-14.63,14.65l-5.16,10.19c-1.54,3.04-3.55,5.8-5.97,8.2L55.89,174.8c-3.95,3.97-6.43,9.16-7.05,14.73
	l-1.96,17.38v0.13l-0.26,2.23c-12.02,5.89-17,20.4-11.13,32.43l-12.21,12.16C20.8,249.93,19.46,245.37,19.44,240.72z M81.65,216.85
	l-2.84,1.89c-3.27-5.86-8.9-10.05-15.46-11.48l1.8-15.93c0.2-1.86,1.03-3.59,2.34-4.92l37.65-37.65c3.66-3.63,6.7-7.83,9.02-12.44
	l5.16-10.19c1.61-3.18,4.2-5.77,7.38-7.38l10.19-5.15c4.6-2.33,8.8-5.37,12.44-9.02l37.65-37.66c1.33-1.32,3.07-2.14,4.92-2.35
	l15.89-1.79c1.05,4.43,3.32,8.48,6.56,11.68c1.5,1.46,3.19,2.72,5.01,3.76l-1.91,2.86c-1.15,1.78-2.96,3.02-5.04,3.45
	c-14.34,2.63-43.71,12.31-79.31,47.94c-35.61,35.64-45.32,64.97-47.95,79.31C84.73,213.88,83.46,215.71,81.65,216.85z M51.84,236.92
	c-2.34-2.35-3.05-5.88-1.78-8.94c1.27-3.07,4.26-5.07,7.58-5.07c3.32,0,6.31,2,7.58,5.07c1.27,3.07,0.57,6.59-1.78,8.94
	c-1.53,1.55-3.62,2.42-5.8,2.42C55.46,239.34,53.37,238.47,51.84,236.92z M232.02,65.23c-2.29,0.09-4.52-0.78-6.15-2.39
	c-2.3-2.35-2.98-5.85-1.72-8.89c1.26-3.04,4.22-5.03,7.51-5.06c2.18,0,4.28,0.87,5.82,2.42c1.55,1.52,2.42,3.6,2.42,5.77
	c0,2.17-0.87,4.25-2.42,5.77v0.04C236.04,64.36,234.08,65.21,232.02,65.23z M47.11,253.25c6.71,3.24,14.53,3.25,21.24,0
	c6.71-3.24,11.58-9.36,13.21-16.64l9.17-6.12c5.48-3.62,9.27-9.29,10.5-15.74c1.84-10.03,9.74-36.99,43.4-70.66
	c33.66-33.67,60.63-41.56,70.66-43.4c6.45-1.23,12.13-5.02,15.75-10.5l6.09-9.13c7.31-1.6,13.48-6.47,16.74-13.21
	c3.26-6.74,3.24-14.6-0.05-21.33l12.56-12.54c4.26,4.37,7.58,9.56,9.77,15.25c0,0.1,0.05,0.19,0.08,0.29
	c1.57,3.55,1.64,7.59,0.21,11.2L258.1,93.77c-0.73,1.32-1.64,2.54-2.7,3.61l-24.12,24.05c-54.13,12.79-96.39,55.05-109.17,109.18
	L97.9,254.84c-1.09,1.08-2.33,2-3.68,2.74l-12.52,6.94c-0.05,0-0.12,0-0.16,0.05c-0.05,0.05-0.1,0.1-0.16,0.13l-20.14,11.18
	c-3.6,1.43-7.63,1.35-11.18-0.21h-0.11c-5.75-2.18-11-5.54-15.39-9.84L47.11,253.25z M135.3,249.55
	c7.07-60.26,54.59-107.78,114.85-114.85c5.11-0.63,10.25-0.95,15.4-0.96c54.54-0.06,103.45,33.6,122.86,84.57
	c19.41,50.97,5.3,108.64-35.46,144.88c-40.76,36.24-99.68,43.52-148.04,18.27C156.57,356.22,128.86,303.71,135.3,249.55z
	 M419.06,418.55c-57.65,57.77-143.23,77.53-220.37,50.88c-77.14-26.65-132.27-95.03-141.96-176.07c4.35,0.03,8.64-1.05,12.46-3.13
	l13.13-7.26c6.19,10.82,13.54,20.93,21.92,30.16c3.16,3.21,8.32,3.27,11.56,0.14c3.23-3.14,3.34-8.3,0.23-11.56
	c-7.37-8.19-13.86-17.14-19.36-26.7l5.49-3.04c2.71-1.47,5.2-3.33,7.38-5.51l8.7-8.7c-2.92,60.27,31.15,116.25,86.03,141.34
	s119.5,14.25,163.18-27.39c43.67-41.63,57.6-105.66,35.17-161.68c-22.44-56.01-76.72-92.72-137.06-92.69c-2.39,0-4.78,0.1-7.15,0.21
	l8.61-8.61c2.16-2.16,4.01-4.63,5.47-7.31l18.29-32.97c2.05-3.84,3.09-8.13,3.04-12.48c81.03,9.69,149.41,64.82,176.08,141.96
	c26.67,77.13,6.93,162.72-50.83,220.39V418.55z"/>
<path class="st0" d="M265.55,379.8c54.77-0.04,101.88-38.76,112.53-92.48c10.65-53.72-18.13-107.48-68.74-128.42
	s-108.96-3.2-139.36,42.36c-30.4,45.56-24.4,106.24,14.35,144.95C205.86,367.77,235.09,379.86,265.55,379.8z M195.94,195.39
	c28.15-28.16,70.5-36.58,107.29-21.34C340.01,189.28,364,225.18,364,265s-23.98,75.71-60.77,90.95
	c-36.79,15.24-79.13,6.81-107.29-21.34c-18.54-18.42-28.97-43.48-28.97-69.61C166.97,238.86,177.4,213.81,195.94,195.39z"/>
<path class="st0" d="M265.55,322.43c27.39,0,50.97-19.36,56.32-46.23c5.34-26.87-9.04-53.77-34.35-64.26
	c-25.31-10.48-54.51-1.62-69.72,21.16c-15.22,22.78-12.23,53.14,7.14,72.51C235.69,316.41,250.31,322.47,265.55,322.43z
	 M236.54,235.99c16.02-16.02,41.99-16.01,58.01,0c16.02,16.02,16.02,41.99,0,58.01c-16.02,16.02-41.99,16.02-58.01,0.01
	c-7.75-7.66-12.12-18.11-12.12-29.01S228.79,243.65,236.54,235.99z"/>
<path class="st0" d="M273.75,191.16c0,4.53-3.67,8.2-8.2,8.2c-4.53,0-8.2-3.67-8.2-8.2c0-4.53,3.67-8.2,8.2-8.2
	C270.08,182.96,273.75,186.64,273.75,191.16z"/>
<path class="st0" d="M215.51,319.96c-2.65,3.67-1.83,8.79,1.84,11.45c3.66,2.66,8.79,1.84,11.45-1.81
	c2.66-3.66,1.86-8.79-1.79-11.45c-1.76-1.29-3.97-1.82-6.12-1.47C218.72,317.01,216.78,318.2,215.51,319.96z"/>
<path class="st0" d="M304.11,318.1c-3.66,2.67-4.46,7.8-1.8,11.45c2.66,3.66,7.78,4.47,11.45,1.82c3.66-2.66,4.48-7.78,1.83-11.45
	c-1.28-1.77-3.21-2.96-5.36-3.29C308.07,316.28,305.87,316.81,304.11,318.1z"/>
<path class="st0" d="M203.1,244.73c1.03-3.15,0.05-6.62-2.47-8.77c-2.52-2.15-6.09-2.58-9.05-1.07c-2.96,1.5-4.71,4.64-4.45,7.95
	c0.26,3.31,2.49,6.13,5.64,7.16C197.08,251.39,201.7,249.04,203.1,244.73z"/>
<path class="st0" d="M338.33,250c3.16-1.03,5.38-3.85,5.64-7.16c0.26-3.31-1.5-6.45-4.45-7.95c-2.96-1.51-6.53-1.08-9.05,1.07
	c-2.52,2.16-3.5,5.62-2.47,8.77C329.4,249.04,334.02,251.39,338.33,250z"/>
<path class="st0" d="M382.04,101.09c-25.55-5.23-51.9-5.21-77.43,0.08c-4.01,1-6.65,4.84-6.15,8.95c0.5,4.1,3.97,7.2,8.11,7.22
	c0.68,0,1.35-0.08,2-0.25c23.18-4.65,47.06-4.62,70.24,0.08c2.92,0.69,5.98-0.27,7.98-2.5c2-2.23,2.63-5.37,1.64-8.2
	c-1-2.83-3.45-4.89-6.41-5.38H382.04z"/>
<path class="st0" d="M222.54,412.91c-23.19,4.64-47.06,4.61-70.23-0.08c-2.92-0.69-5.98,0.27-7.99,2.5c-2,2.23-2.63,5.38-1.64,8.2
	c0.99,2.83,3.45,4.89,6.41,5.38c12.86,2.56,25.95,3.84,39.06,3.83c12.9,0.15,25.78-1.17,38.38-3.91c2.86-0.69,5.13-2.87,5.95-5.7
	c0.81-2.83,0.05-5.88-2-7.99C228.42,413.03,225.39,412.18,222.54,412.91z"/>
<path class="st0" d="M382.28,370.58c-4.36-1.24-8.89,1.28-10.14,5.63c-7.58,22.4-19.56,43.06-35.22,60.78
	c-2.06,2.18-2.76,5.31-1.84,8.16c0.92,2.86,3.33,4.97,6.28,5.53c2.95,0.56,5.96-0.54,7.87-2.86c17.3-19.52,30.44-42.35,38.64-67.11
	C389.12,376.37,386.62,371.84,382.28,370.58z"/>
<path class="st0" d="M415.16,228.29c15.61,17.76,27.52,38.46,35.04,60.87c1.45,4.3,6.12,6.62,10.42,5.16
	c4.3-1.45,6.62-6.12,5.16-10.42c-8.25-24.74-21.45-47.54-38.79-67.01c-2.02-2.2-5.07-3.13-7.97-2.44c-2.9,0.7-5.19,2.92-5.99,5.79
	c-0.79,2.88,0.03,5.96,2.16,8.04H415.16z"/>
</svg>
