<?xml version="1.0" encoding="utf-8"?>
<!-- Generator: Adobe Illustrator 24.0.2, SVG Export Plug-In . SVG Version: 6.00 Build 0)  -->
<svg version="1.1" id="Layer_1" xmlns="http://www.w3.org/2000/svg" xmlns:xlink="http://www.w3.org/1999/xlink" x="0px" y="0px"
	 viewBox="0 0 500 500" style="enable-background:new 0 0 500 500;" xml:space="preserve">
<style type="text/css">
	.st0{fill:#FFFFFF;}
</style>
<path class="st0" d="M250.31,2.48c-136.37,0-247.3,110.93-247.3,247.3s110.93,247.3,247.3,247.3s247.3-110.93,247.3-247.3
	S386.68,2.48,250.31,2.48z M250.31,481.12c-127.56,0-231.35-103.79-231.35-231.35S122.75,18.43,250.31,18.43
	s231.35,103.79,231.35,231.35S377.87,481.12,250.31,481.12z"/>
<path class="st0" d="M210.43,249.78c0,21.99,17.89,39.89,39.89,39.89s39.89-17.89,39.89-39.89s-17.89-39.89-39.89-39.89
	c-1.99,0-3.92,0.3-5.83,0.59l-70.86-64.41h-27.02v27.02l64.41,70.86C210.73,245.86,210.43,247.78,210.43,249.78L210.43,249.78z
	 M274.24,249.78c0,13.19-10.74,23.93-23.93,23.93s-23.93-10.74-23.93-23.93s10.74-23.93,23.93-23.93S274.24,236.58,274.24,249.78z
	 M162.56,166.92v-4.89h4.89l60.36,54.87c-4.07,2.79-7.59,6.31-10.38,10.38L162.56,166.92z"/>
<path class="st0" d="M250.31,34.39c-118.77,0-215.39,96.62-215.39,215.39s96.62,215.39,215.39,215.39S465.7,368.55,465.7,249.78
	S369.08,34.39,250.31,34.39z M250.31,449.21c-107.3,0-195.02-85.18-199.24-191.46h31.71V241.8H51.08
	c0.85-21.32,5.02-41.81,12.07-60.92l29.33,12.16l6.11-14.74l-29.28-12.13c8.81-18.99,20.49-36.38,34.53-51.57l22.36,22.36
	l11.28-11.28l-22.36-22.36c15.2-14.04,32.58-25.73,51.57-34.53l12.13,29.28l14.74-6.11l-12.16-29.33
	c19.11-7.05,39.59-11.22,60.92-12.07v31.71h15.95V50.54c21.32,0.85,41.81,5.02,60.92,12.07l-12.16,29.33l14.74,6.11l12.13-29.28
	c18.99,8.81,36.38,20.49,51.57,34.53l-22.36,22.36l11.28,11.28l22.36-22.36c14.04,15.2,25.73,32.58,34.53,51.57l-29.28,12.13
	l6.11,14.74l29.33-12.16c7.05,19.11,11.23,39.59,12.07,60.92h-31.71v15.95h31.71C445.34,364.04,357.61,449.21,250.31,449.21
	L250.31,449.21z"/>
<path class="st0" d="M260.71,353.49h-10.39v-15.95h15.95v-15.95h-79.77v15.95h15.95v17.42c-2.62,0.93-5.01,2.31-7.13,4.05
	l-35.09-35.09l-11.28,11.28l37.98,37.98c-0.25,1.38-0.43,2.79-0.43,4.24v15.95c0,21.99,17.89,39.89,39.89,39.89h59.03
	c15.76,0,30.06-9.29,36.45-23.69l24.18-54.4v-23.42l-63.5,36.29L260.71,353.49z M234.36,337.53v15.95H218.4v-15.95H234.36z
	 M307.29,403.1c-3.84,8.63-12.42,14.21-21.87,14.21h-59.03c-13.19,0-23.93-10.74-23.93-23.93v-15.95c0-4.4,3.57-7.98,7.98-7.98
	h45.45l26.03,17.35l43.73-24.99L307.29,403.1z"/>
<path class="st0" d="M393.91,289.67c-13.19,0-23.93,10.74-23.93,23.93s10.74,23.93,23.93,23.93s23.93-10.74,23.93-23.93
	S407.1,289.67,393.91,289.67z M393.91,321.58c-4.4,0-7.98-3.57-7.98-7.98s3.57-7.98,7.98-7.98s7.98,3.57,7.98,7.98
	S398.31,321.58,393.91,321.58z"/>
<path class="st0" d="M106.72,289.67c-13.19,0-23.93,10.74-23.93,23.93s10.74,23.93,23.93,23.93s23.93-10.74,23.93-23.93
	S119.91,289.67,106.72,289.67z M106.72,321.58c-4.4,0-7.98-3.57-7.98-7.98s3.57-7.98,7.98-7.98s7.98,3.57,7.98,7.98
	S111.12,321.58,106.72,321.58z"/>
</svg>
