<?xml version="1.0" encoding="utf-8"?>
<!-- Generator: Adobe Illustrator 24.0.2, SVG Export Plug-In . SVG Version: 6.00 Build 0)  -->
<svg version="1.1" id="Layer_1" xmlns="http://www.w3.org/2000/svg" xmlns:xlink="http://www.w3.org/1999/xlink" x="0px" y="0px"
	 viewBox="0 0 500 500" style="enable-background:new 0 0 500 500;" xml:space="preserve">
<style type="text/css">
	.st0{fill:#FFFFFF;}
</style>
<path class="st0" d="M291.22,270.2h-21.66l10.96-36.54c1.5-5,0.54-10.42-2.57-14.6c-3.11-4.19-8.03-6.66-13.25-6.65h-32.3
	c-7.28,0.03-13.69,4.8-15.82,11.77l-19.81,66.05c-1.5,5-0.54,10.42,2.57,14.6c3.12,4.18,8.03,6.65,13.25,6.65h26.97l-21.13,63.44
	c-1.25,3.76,0.35,7.88,3.81,9.81c3.46,1.93,7.81,1.13,10.36-1.92l71.28-85.53c4.1-4.92,4.99-11.77,2.28-17.57
	C303.45,273.92,297.62,270.21,291.22,270.2z M247.95,338.64l10.93-32.8c0.84-2.52,0.42-5.29-1.14-7.44
	c-1.55-2.15-4.05-3.43-6.7-3.42H212.6l19.81-66.05h32.3l-10.96,36.54c-1.5,5-0.54,10.41,2.57,14.6c3.11,4.19,8.02,6.66,13.24,6.66
	h21.66L247.95,338.64z"/>
<path class="st0" d="M481.1,171.13h-16.51c-9.12,0-16.51,7.39-16.51,16.51v41.28h-16.51v-41.28c0-13.68-11.09-24.77-24.77-24.77
	H274.7v-16.51h41.28c9.12,0,16.51-7.39,16.51-16.51v-8.25c-0.03-22.79-18.49-41.25-41.28-41.28h-82.56
	c-22.79,0.03-41.25,18.49-41.28,41.28v8.25c0,9.12,7.39,16.51,16.51,16.51h41.28v16.51h-9c-6.53,0.04-12.9,1.95-18.37,5.53
	l-61.62,41.19c-2.78,1.82-6.02,2.8-9.33,2.83h-25.51c-13.68,0-24.77,11.09-24.77,24.77v57.79H51.79v-41.28
	c0-9.12-7.39-16.51-16.51-16.51H18.77c-9.12,0-16.51,7.39-16.51,16.51v132.1c0,9.12,7.39,16.51,16.51,16.51h16.51
	c9.12,0,16.51-7.39,16.51-16.51v-41.28h24.77v49.53c0,13.68,11.09,24.77,24.77,24.77H274.7c7.14-0.02,14.09-2.33,19.81-6.61
	l85.87-64.4c2.86-2.13,6.33-3.29,9.91-3.3h16.51c13.68,0,24.77-11.09,24.77-24.77v-41.28h16.51v41.28c0,9.12,7.39,16.52,16.51,16.52
	h16.51c9.12,0,16.51-7.4,16.51-16.52V187.65C497.61,178.53,490.22,171.13,481.1,171.13z M183.89,121.6
	c0-13.68,11.09-24.77,24.77-24.77h82.56c13.68,0,24.77,11.09,24.77,24.77v8.25H183.89V121.6z M241.68,146.36h16.52v16.51h-16.52
	V146.36z M35.28,385.79H18.77v-132.1h16.51V385.79z M51.79,328v-16.51h24.77V328H51.79z M415.06,319.74c0,4.56-3.7,8.26-8.26,8.26
	h-16.51c-7.14,0.02-14.09,2.33-19.81,6.61L284.61,399c-2.86,2.13-6.34,3.29-9.91,3.3H101.33c-4.56,0-8.25-3.7-8.25-8.26V237.18
	c0-4.56,3.7-8.25,8.25-8.25h25.51c6.53-0.04,12.9-1.95,18.37-5.53l61.62-41.19c2.78-1.82,6.02-2.8,9.33-2.83H406.8
	c4.56,0,8.26,3.7,8.26,8.26V319.74z M431.57,261.95v-16.51h16.51v16.51H431.57z M481.1,319.74h-16.51V187.65h16.51V319.74z"/>
</svg>
