<?xml version="1.0" encoding="utf-8"?>
<!-- Generator: Adobe Illustrator 24.0.2, SVG Export Plug-In . SVG Version: 6.00 Build 0)  -->
<svg version="1.1" id="Layer_1" xmlns="http://www.w3.org/2000/svg" xmlns:xlink="http://www.w3.org/1999/xlink" x="0px" y="0px"
	 viewBox="0 0 500 500" style="enable-background:new 0 0 500 500;" xml:space="preserve">
<style type="text/css">
	.st0{fill:#FFFFFF;}
</style>
<path class="st0" d="M490.48,414.54l-57.35-15.37c5.71-4.05,10-10.11,11.83-16.94l2.53-9.44l37.99,10.18
	c0.84,0.22,1.68,0.33,2.5,0.33c4.26,0,8.16-2.84,9.32-7.15c1.38-5.15-1.68-10.44-6.82-11.82l-37.99-10.18l4.96-18.53
	c2-7.45,0.96-15.25-2.91-21.96c-3.87-6.71-10.11-11.51-17.56-13.5l-167.79-44.96c-12.15-3.26-24.6,1.76-31.36,11.58l-10.93-2.93
	c-7.45-2-15.25-0.96-21.96,2.91c-6.71,3.87-11.5,10.11-13.5,17.56L190.2,289l-9.91-2.66c1.79-13.53-0.58-26.17-7.02-37.24
	c3.54-6.36,5.44-13.58,5.44-20.92c0-6.43-1.43-12.7-4.13-18.4c9.97-5.71,18.57-13.56,25.24-23.13c9.16-13.13,14-28.55,14-44.61
	c0-43.04-35.01-78.05-78.05-78.05c-2.38,0-4.8,0.11-7.19,0.33c-5.31,0.49-9.22,5.19-8.73,10.49c0.49,5.31,5.18,9.22,10.49,8.73
	c1.81-0.17,3.63-0.25,5.43-0.25c32.39,0,58.75,26.35,58.75,58.75c0,24.01-15,45.97-37.34,54.72c-0.07,0.03-0.14,0.04-0.21,0.07
	c-6.79,2.63-13.92,3.96-21.2,3.96c-5.33,0-9.65,4.32-9.65,9.65s4.32,9.65,9.65,9.65c7.12,0,14.13-0.97,20.94-2.87
	c1.75,3.35,2.71,7.09,2.71,10.95c0,5.47-1.81,10.6-5.24,14.84c-2.78,3.44-2.86,8.34-0.2,11.87c6.4,8.48,8.74,18.11,7.13,29.26
	c-6.23,1.85-11.39,6.77-13.19,13.49l-4.81,17.94c-32.31-11.61-43.96-26.7-41.93-51.98c0.28-3.55-1.41-6.96-4.4-8.89
	c-4.52-2.91-7.21-7.84-7.21-13.2c0-1.44,0.19-2.86,0.58-4.23c0.97-3.46-0.07-7.16-2.68-9.62c-2.62-2.46-6.38-3.26-9.77-2.09
	c-4.34,1.51-8.9,2.27-13.53,2.27c-22.79,0-41.33-18.54-41.33-41.33c0-22.79,18.54-41.33,41.33-41.33c0.91,0,1.88,0.03,2.86,0.1
	c5.2,0.36,9.78-3.52,10.26-8.74c0.17-1.79,0.42-3.6,0.75-5.38c0.98-5.24-2.47-10.28-7.71-11.26c-4.69-0.88-9.24,1.81-10.83,6.15
	c-31.26,2.39-55.96,28.59-55.96,60.45c0,33.43,27.2,60.63,60.63,60.63c2.18,0,4.36-0.12,6.51-0.35c1.2,7.94,5.08,15.18,11.01,20.57
	c-0.87,45.86,37.16,62.45,74.89,72.56c0,0,0,0,0,0l18.64,5l-1.25,4.66c-4.13,15.42,5.05,31.33,20.47,35.46l90.51,24.25
	c0.84,0.22,1.68,0.33,2.5,0.33c4.26,0,8.16-2.84,9.32-7.15c1.38-5.15-1.68-10.44-6.82-11.82l-90.51-24.25
	c-5.14-1.38-8.2-6.68-6.82-11.82l17.48-65.25c0.66-2.47,2.26-4.54,4.51-5.84c2.24-1.3,4.84-1.65,7.31-0.98l9.32,2.5l-2.5,9.32
	c-3.76,14.02,3.87,28.05,18.97,34.92l152.85,69.54l-2.88,10.75c-0.66,2.47-2.26,4.54-4.51,5.84c-2.24,1.3-4.84,1.65-7.31,0.98
	l-12.03-3.22c-5.15-1.38-10.44,1.68-11.82,6.82c-1.38,5.15,1.68,10.44,6.82,11.82l12.03,3.22c2.48,0.66,5,0.99,7.5,0.99
	c5.02,0,9.98-1.32,14.46-3.91c6.68-3.85,11.45-10.05,13.47-17.44l69.19,18.54c0.84,0.22,1.68,0.33,2.5,0.33
	c4.26,0,8.16-2.84,9.32-7.15C498.68,421.21,495.63,415.92,490.48,414.54L490.48,414.54z M161.57,321.29
	C161.57,321.29,161.57,321.29,161.57,321.29l4.99-18.64l18.64,5l-5,18.64L161.57,321.29z M247.38,299.32l5-18.64
	c1.15-4.31,5.06-7.15,9.32-7.15c0.82,0,1.66,0.11,2.5,0.33l167.79,44.96c2.47,0.66,4.54,2.26,5.84,4.51
	c1.3,2.25,1.65,4.84,0.99,7.31l-12.49,46.61c-0.79,2.95-3.14,5.8-5.85,7.08c-1.66,0.78-3.16,0.88-4.47,0.28l-160.3-72.92
	C250.92,309.5,245.87,304.96,247.38,299.32L247.38,299.32z"/>
</svg>
